# xmcd CD database file
#
# Track frame offsets:
#	150
#	22222
#	41770
#
# Disc length: 847 seconds
#
# Revision: 3
# Processed by: cddbd v1.5.2PL0 Copyright (c) Steve Scherf et al.
# Submitted via: jetAudio 7
#
DISCID=23034d03
DTITLE=little by little - ハミングバード
DYEAR=2005
DGENRE=Anime(J)
TTITLE0=ハミングバード
TTITLE1=LONELY SURVIVOR
TTITLE2=ハミングバード -Instrumental-
EXTD=YEAR: 2005
EXTT0=
EXTT1=
EXTT2=
PLAYORDER=
